<?xml version='1.0' encoding='utf-8'?>
<svg xmlns="http://www.w3.org/2000/svg" width="440" height="280" viewBox="0 0 440 280" role="img" aria-label="Capture">
  <title>Capture — Small promotional tile</title>
  <defs>
    <linearGradient id="text" x1="0" y1="0" x2="1" y2="0">
      <stop offset="0%" stop-color="#1a8cff" />
      <stop offset="50%" stop-color="#00b4ff" />
      <stop offset="100%" stop-color="#00e0ff" />
    </linearGradient>
  </defs>

  
  <g transform="translate(220,140)">
    
    <g transform="translate(-205,-64)">
      <g transform="scale(1)">
        <path fill="#00c9fd" d="M 121.06,45.46 A 60,60 0 0 0 81.54,6.62 L 78.47,46.13 A 23,23 0 0 1 86.94,65.60 Z" />
        <path fill="#009af6" d="M 76.47,5.31 A 60,60 0 0 0 23.08,20.12 L 55.76,42.53 A 23,23 0 0 1 76.86,44.93 Z" />
        <path fill="#0072f0" d="M 19.41,23.85 A 60,60 0 0 0 5.54,77.50 L 41.28,60.40 A 23,23 0 0 1 53.92,43.33 Z" />
        <path fill="#0078f1" d="M 6.94,82.54 A 60,60 0 0 0 46.46,121.38 L 49.53,81.87 A 23,23 0 0 1 41.06,62.40 Z" />
        <path fill="#00a7f8" d="M 51.53,122.69 A 60,60 0 0 0 104.92,107.88 L 72.24,85.47 A 23,23 0 0 1 51.14,83.07 Z" />
        <path fill="#00cffe" d="M 108.59,104.15 A 60,60 0 0 0 122.46,50.50 L 86.72,67.60 A 23,23 0 0 1 74.08,84.67 Z" />
        <circle cx="64" cy="64" r="23" fill="#ffffff" />
        <circle cx="71.25" cy="58.75" r="11" fill="#e60000" />
      </g>
      <g transform="translate(152.0,84.0)" fill="url(#text)" aria-label="Capture"><path d="M25.152 -38.272Q19.584 -38.272 16.64 -34.112Q13.696 -29.952 13.696 -22.72Q13.696 -15.424 16.416 -11.424Q19.136 -7.424 25.152 -7.424Q27.968 -7.424 30.752000000000002 -8.064Q33.536 -8.704 36.800000000000004 -9.856V-1.728Q33.792 -0.512 30.848 0.064Q27.904 0.64 24.256 0.64Q17.216 0.64 12.64 -2.2720000000000002Q8.064 -5.184 5.888 -10.464Q3.712 -15.744 3.712 -22.784Q3.712 -29.696 6.208 -35.008Q8.704 -40.32 13.472000000000001 -43.328Q18.240000000000002 -46.336 25.152 -46.336Q28.544 -46.336 31.968000000000004 -45.472Q35.392 -44.608000000000004 38.528 -43.136L35.392 -35.264Q32.832 -36.480000000000004 30.240000000000002 -37.376000000000005Q27.648 -38.272 25.152 -38.272Z M60.096000000000004 -35.648Q67.136 -35.648 70.88 -32.608000000000004Q74.624 -29.568 74.624 -23.296V0.0H67.968L66.112 -4.736H65.856Q63.616 -1.92 61.120000000000005 -0.6399999999999999Q58.624 0.64 54.272 0.64Q49.6 0.64 46.528000000000006 -2.08Q43.456 -4.8 43.456 -10.432Q43.456 -16.0 47.36 -18.656Q51.264 -21.312 59.072 -21.568L65.152 -21.76V-23.296Q65.152 -26.048000000000002 63.712 -27.328000000000003Q62.272000000000006 -28.608 59.712 -28.608Q57.152 -28.608 54.72 -27.872Q52.288 -27.136 49.856 -26.048000000000002L46.72 -32.512Q49.536 -33.984 52.96 -34.816Q56.384 -35.648 60.096000000000004 -35.648ZM61.44 -16.064Q56.832 -15.936 55.040000000000006 -14.4Q53.248000000000005 -12.864 53.248000000000005 -10.368Q53.248000000000005 -8.192 54.528000000000006 -7.264Q55.808 -6.336 57.856 -6.336Q60.928 -6.336 63.04 -8.16Q65.152 -9.984 65.152 -13.312000000000001V-16.192Z M103.87200000000001 -35.584Q109.76 -35.584 113.40800000000002 -31.008000000000003Q117.05600000000001 -26.432000000000002 117.05600000000001 -17.536Q117.05600000000001 -8.64 113.28 -4.0Q109.504 0.64 103.61600000000001 0.64Q99.84 0.64 97.60000000000001 -0.736Q95.36000000000001 -2.112 93.95200000000001 -3.84H93.44000000000001Q93.95200000000001 -1.1520000000000001 93.95200000000001 1.28V15.36H84.41600000000001V-34.944H92.16000000000001L93.504 -30.400000000000002H93.95200000000001Q95.36000000000001 -32.512 97.72800000000001 -34.048Q100.096 -35.584 103.87200000000001 -35.584ZM100.80000000000001 -27.968Q97.08800000000001 -27.968 95.584 -25.664Q94.08000000000001 -23.36 93.95200000000001 -18.624V-17.6Q93.95200000000001 -12.544 95.45600000000002 -9.824Q96.96000000000001 -7.104 100.92800000000001 -7.104Q104.19200000000001 -7.104 105.76 -9.824Q107.328 -12.544 107.328 -17.664Q107.328 -27.968 100.80000000000001 -27.968Z M139.648 -6.976Q141.24800000000002 -6.976 142.72000000000003 -7.296Q144.192 -7.6160000000000005 145.66400000000002 -8.064V-0.96Q144.12800000000001 -0.32 141.856 0.16Q139.584 0.64 136.89600000000002 0.64Q133.76000000000002 0.64 131.296 -0.38399999999999995Q128.832 -1.408 127.392 -3.936Q125.95200000000001 -6.464 125.95200000000001 -10.944V-27.776H121.408V-31.808L126.656 -35.008L129.40800000000002 -42.368H135.488V-34.944H145.28V-27.776H135.488V-10.944Q135.488 -8.96 136.64 -7.968Q137.792 -6.976 139.648 -6.976Z M184.76800000000003 -34.944V0.0H177.472L176.192 -4.48H175.68Q174.01600000000002 -1.792 171.104 -0.5760000000000001Q168.192 0.64 164.92800000000003 0.64Q159.29600000000002 0.64 155.90400000000002 -2.4000000000000004Q152.51200000000003 -5.44 152.51200000000003 -12.16V-34.944H162.04800000000003V-14.528Q162.04800000000003 -10.816 163.39200000000002 -8.896Q164.73600000000002 -6.976 167.68 -6.976Q172.032 -6.976 173.632 -9.952Q175.23200000000003 -12.928 175.23200000000003 -18.496V-34.944Z M214.27200000000002 -35.584Q214.97600000000003 -35.584 215.93600000000004 -35.52Q216.89600000000002 -35.456 217.472 -35.328L216.76800000000003 -26.368000000000002Q216.32000000000002 -26.496000000000002 215.45600000000002 -26.592Q214.592 -26.688 213.95200000000003 -26.688Q211.52 -26.688 209.28000000000003 -25.823999999999998Q207.04000000000002 -24.96 205.66400000000002 -23.04Q204.288 -21.12 204.288 -17.792V0.0H194.752V-34.944H201.984L203.39200000000002 -29.056H203.84000000000003Q205.37600000000003 -31.744 208.06400000000002 -33.664Q210.752 -35.584 214.27200000000002 -35.584Z M238.20800000000003 -35.584Q245.44000000000003 -35.584 249.66400000000004 -31.456000000000003Q253.88800000000003 -27.328 253.88800000000003 -19.712V-15.104000000000001H231.36000000000004Q231.48800000000003 -11.072000000000001 233.76000000000005 -8.768Q236.03200000000004 -6.464 240.06400000000002 -6.464Q243.45600000000002 -6.464 246.20800000000003 -7.136Q248.96000000000004 -7.808 251.90400000000002 -9.216000000000001V-1.856Q249.34400000000002 -0.5760000000000001 246.49600000000004 0.03199999999999997Q243.64800000000002 0.64 239.61600000000004 0.64Q234.36800000000002 0.64 230.336 -1.312Q226.30400000000003 -3.2640000000000002 224.00000000000003 -7.232000000000001Q221.69600000000003 -11.200000000000001 221.69600000000003 -17.216Q221.69600000000003 -23.36 223.776 -27.424Q225.85600000000002 -31.488 229.56800000000004 -33.536Q233.28000000000003 -35.584 238.20800000000003 -35.584ZM238.27200000000002 -28.8Q235.52000000000004 -28.8 233.69600000000003 -27.008000000000003Q231.87200000000004 -25.216 231.55200000000002 -21.44H244.92800000000003Q244.86400000000003 -24.64 243.26400000000004 -26.72Q241.66400000000004 -28.8 238.27200000000002 -28.8Z" /></g></g>
  </g>
</svg>