<?xml version='1.0' encoding='utf-8'?>
<svg xmlns="http://www.w3.org/2000/svg" width="1400" height="560" viewBox="0 0 1400 560" role="img" aria-label="Capture All 全采">
  <title>Capture All 全采 — Marquee promotional tile</title>
  <defs>
    <linearGradient id="text" x1="0" y1="0" x2="1" y2="0">
      <stop offset="0%" stop-color="#1a8cff" />
      <stop offset="50%" stop-color="#00b4ff" />
      <stop offset="100%" stop-color="#00e0ff" />
    </linearGradient>
  </defs>

  
  <g transform="translate(700,280)">
    <g transform="translate(-560,-240)">
      <g transform="scale(3.75)">
        <path fill="#00c9fd" d="M 121.06,45.46 A 60,60 0 0 0 81.54,6.62 L 78.47,46.13 A 23,23 0 0 1 86.94,65.60 Z" />
        <path fill="#009af6" d="M 76.47,5.31 A 60,60 0 0 0 23.08,20.12 L 55.76,42.53 A 23,23 0 0 1 76.86,44.93 Z" />
        <path fill="#0072f0" d="M 19.41,23.85 A 60,60 0 0 0 5.54,77.50 L 41.28,60.40 A 23,23 0 0 1 53.92,43.33 Z" />
        <path fill="#0078f1" d="M 6.94,82.54 A 60,60 0 0 0 46.46,121.38 L 49.53,81.87 A 23,23 0 0 1 41.06,62.40 Z" />
        <path fill="#00a7f8" d="M 51.53,122.69 A 60,60 0 0 0 104.92,107.88 L 72.24,85.47 A 23,23 0 0 1 51.14,83.07 Z" />
        <path fill="#00cffe" d="M 108.59,104.15 A 60,60 0 0 0 122.46,50.50 L 86.72,67.60 A 23,23 0 0 1 74.08,84.67 Z" />
        <circle cx="71.25" cy="58.75" r="11" fill="#e60000" />
      </g>

      
      <g transform="translate(520.0,175.0)" fill="url(#text)" aria-label="全采"><path d="M51.732 -92.772C40.932 -75.816 21.168 -61.884 1.728 -53.784C4.968 -50.76 8.748 -46.332 10.584 -42.984C14.04 -44.711999999999996 17.496 -46.548 20.951999999999998 -48.6V-41.256H47.196V-28.727999999999998H22.464V-17.496H47.196V-4.428H8.208V7.128H100.548V-4.428H60.804V-17.496H86.508V-28.727999999999998H60.804V-41.256H87.48V-48.168C90.828 -46.224 94.284 -44.28 97.848 -42.444C99.576 -46.224 103.356 -50.652 106.488 -53.568C89.316 -61.128 74.196 -70.74 61.344 -84.456L63.288 -87.372ZM27.54 -52.704C37.152 -59.076 46.224 -66.636 53.891999999999996 -75.16799999999999C62.208 -66.204 70.848 -58.967999999999996 80.352 -52.704Z M207.7 -74.736C204.352 -66.204 198.088 -55.188 193.12 -48.275999999999996L203.92000000000002 -43.416C209.10399999999998 -50.112 215.692 -60.263999999999996 220.98399999999998 -69.55199999999999ZM137.824 -64.8C142.144 -58.644 146.248 -50.328 147.544 -44.928L159.424 -50.004C157.804 -55.62 153.268 -63.504 148.732 -69.444ZM211.804 -91.368C191.716 -87.696 159.856 -85.104 131.668 -84.24C132.964 -81.108 134.584 -75.492 134.908 -71.928C163.42000000000002 -72.792 196.792 -75.16799999999999 222.064 -79.596ZM129.832 -41.256V-28.512H161.368C152.188 -18.9 139.12 -10.152 126.268 -5.184C129.4 -2.376 133.828 3.024 135.988 6.4799999999999995C148.516 0.54 160.936 -9.072 170.764 -20.196V9.288H184.588V-20.844C194.524 -9.612 207.16 0.216 219.688 6.156C221.95600000000002 2.592 226.276 -2.808 229.40800000000002 -5.508C216.772 -10.475999999999999 203.488 -19.116 194.2 -28.512H226.276V-41.256H184.588V-50.328H174.436L185.56 -54.324C184.696 -59.508 181.564 -67.176 178.108 -73.008L166.336 -69.012C169.36 -63.18 172.06 -55.512 172.816 -50.328H170.764V-41.256Z" /></g><g transform="translate(520.0,340.0)" fill="url(#text)" aria-label="Capture All"><path d="M42.444 -64.584Q33.048 -64.584 28.08 -57.564Q23.112 -50.544 23.112 -38.339999999999996Q23.112 -26.028 27.701999999999998 -19.278Q32.292 -12.528 42.444 -12.528Q47.196 -12.528 51.894 -13.608Q56.592 -14.688 62.1 -16.632V-2.916Q57.024 -0.864 52.056 0.10800000000000004Q47.088 1.08 40.932 1.08Q29.052 1.08 21.33 -3.8339999999999996Q13.608 -8.748 9.936 -17.658Q6.264 -26.568 6.264 -38.448Q6.264 -50.112 10.476 -59.07600000000001Q14.688 -68.04 22.734 -73.116Q30.78 -78.192 42.444 -78.192Q48.168 -78.192 53.946 -76.734Q59.724 -75.276 65.016 -72.792L59.724 -59.508Q55.403999999999996 -61.56 51.03 -63.072Q46.656 -64.584 42.444 -64.584Z M101.41199999999999 -60.156Q113.292 -60.156 119.61 -55.025999999999996Q125.928 -49.896 125.928 -39.312V0.0H114.696L111.564 -7.992H111.13199999999999Q107.35199999999999 -3.2399999999999998 103.13999999999999 -1.0799999999999998Q98.928 1.08 91.58399999999999 1.08Q83.69999999999999 1.08 78.51599999999999 -3.51Q73.332 -8.1 73.332 -17.604Q73.332 -27.0 79.91999999999999 -31.482Q86.508 -35.964 99.684 -36.396L109.94399999999999 -36.72V-39.312Q109.94399999999999 -43.955999999999996 107.51399999999998 -46.116Q105.08399999999999 -48.275999999999996 100.764 -48.275999999999996Q96.44399999999999 -48.275999999999996 92.33999999999999 -47.034Q88.23599999999999 -45.792 84.13199999999999 -43.955999999999996L78.83999999999999 -54.864Q83.59199999999998 -57.348 89.36999999999999 -58.751999999999995Q95.148 -60.156 101.41199999999999 -60.156ZM103.67999999999999 -27.108Q95.904 -26.892 92.88 -24.299999999999997Q89.856 -21.708 89.856 -17.496Q89.856 -13.824 92.01599999999999 -12.258Q94.17599999999999 -10.692 97.63199999999999 -10.692Q102.816 -10.692 106.38 -13.77Q109.94399999999999 -16.848 109.94399999999999 -22.464V-27.323999999999998Z M175.284 -60.048Q185.22 -60.048 191.37599999999998 -52.326Q197.53199999999998 -44.604 197.53199999999998 -29.592Q197.53199999999998 -14.58 191.15999999999997 -6.75Q184.78799999999998 1.08 174.85199999999998 1.08Q168.48 1.08 164.7 -1.242Q160.92 -3.564 158.54399999999998 -6.4799999999999995H157.68Q158.54399999999998 -1.944 158.54399999999998 2.16V25.919999999999998H142.452V-58.967999999999996H155.51999999999998L157.78799999999998 -51.3H158.54399999999998Q160.92 -54.864 164.916 -57.456Q168.91199999999998 -60.048 175.284 -60.048ZM170.1 -47.196Q163.83599999999998 -47.196 161.298 -43.308Q158.76 -39.42 158.54399999999998 -31.428V-29.7Q158.54399999999998 -21.168 161.082 -16.578Q163.62 -11.988 170.31599999999997 -11.988Q175.82399999999998 -11.988 178.46999999999997 -16.578Q181.11599999999999 -21.168 181.11599999999999 -29.808Q181.11599999999999 -47.196 170.1 -47.196Z M235.656 -11.772Q238.356 -11.772 240.84 -12.312000000000001Q243.324 -12.852 245.808 -13.608V-1.6199999999999999Q243.216 -0.54 239.382 0.27Q235.548 1.08 231.012 1.08Q225.72 1.08 221.562 -0.6479999999999999Q217.404 -2.376 214.974 -6.6419999999999995Q212.54399999999998 -10.908 212.54399999999998 -18.468V-46.872H204.876V-53.676L213.732 -59.076L218.376 -71.496H228.636V-58.967999999999996H245.16V-46.872H228.636V-18.468Q228.636 -15.12 230.57999999999998 -13.446Q232.524 -11.772 235.656 -11.772Z M311.796 -58.967999999999996V0.0H299.48400000000004L297.324 -7.56H296.46000000000004Q293.652 -3.024 288.738 -0.972Q283.824 1.08 278.31600000000003 1.08Q268.812 1.08 263.088 -4.05Q257.36400000000003 -9.18 257.36400000000003 -20.52V-58.967999999999996H273.456V-24.516Q273.456 -18.252 275.72400000000005 -15.012Q277.992 -11.772 282.96000000000004 -11.772Q290.30400000000003 -11.772 293.004 -16.794Q295.704 -21.816 295.704 -31.212V-58.967999999999996Z M361.584 -60.048Q362.77200000000005 -60.048 364.39200000000005 -59.94Q366.01200000000006 -59.832 366.98400000000004 -59.616L365.79600000000005 -44.496Q365.04 -44.711999999999996 363.582 -44.873999999999995Q362.124 -45.036 361.04400000000004 -45.036Q356.94000000000005 -45.036 353.1600000000001 -43.578Q349.38000000000005 -42.12 347.05800000000005 -38.879999999999995Q344.73600000000005 -35.64 344.73600000000005 -30.024V0.0H328.644V-58.967999999999996H340.848L343.22400000000005 -49.032H343.98Q346.572 -53.568 351.108 -56.808Q355.644 -60.048 361.584 -60.048Z M401.976 -60.048Q414.18 -60.048 421.308 -53.082Q428.43600000000004 -46.116 428.43600000000004 -33.264V-25.488H390.42Q390.636 -18.684 394.47 -14.796Q398.30400000000003 -10.908 405.108 -10.908Q410.832 -10.908 415.476 -12.042Q420.12 -13.176 425.088 -15.552V-3.132Q420.76800000000003 -0.972 415.962 0.05400000000000005Q411.156 1.08 404.35200000000003 1.08Q395.496 1.08 388.692 -2.214Q381.88800000000003 -5.508 378.0 -12.203999999999999Q374.112 -18.9 374.112 -29.052Q374.112 -39.42 377.622 -46.278000000000006Q381.132 -53.136 387.396 -56.592Q393.66 -60.048 401.976 -60.048ZM402.084 -48.6Q397.44 -48.6 394.36199999999997 -45.576Q391.284 -42.552 390.744 -36.18H413.31600000000003Q413.208 -41.58 410.50800000000004 -45.09Q407.808 -48.6 402.084 -48.6Z M518.076 0.0 512.4599999999999 -18.36H484.38L478.76399999999995 0.0H461.15999999999997L488.376 -77.43599999999999H508.356L535.68 0.0ZM502.95599999999996 -50.004Q502.41599999999994 -51.839999999999996 501.55199999999996 -54.647999999999996Q500.688 -57.455999999999996 499.82399999999996 -60.372Q498.96 -63.288 498.41999999999996 -65.448Q497.88 -63.288 496.962 -60.102Q496.044 -56.916 495.234 -54.054Q494.424 -51.192 493.99199999999996 -50.004L488.484 -32.076H508.57199999999995Z M560.1959999999999 0.0H544.1039999999999V-82.08H560.1959999999999Z M593.1359999999999 0.0H577.0439999999999V-82.08H593.1359999999999Z" /></g></g>
  </g>
</svg>