<?xml version="1.0" encoding="UTF-8"?>
<svg xmlns="http://www.w3.org/2000/svg" viewBox="0 0 128 128" role="img" aria-label="Capture All">
  <title>Capture All</title>
  <path fill="#00c9fd" d="M 121.06,45.46 A 60,60 0 0 0 81.54,6.62 L 78.47,46.13 A 23,23 0 0 1 86.94,65.60 Z"/>
  <path fill="#009af6" d="M 76.47,5.31 A 60,60 0 0 0 23.08,20.12 L 55.76,42.53 A 23,23 0 0 1 76.86,44.93 Z"/>
  <path fill="#0072f0" d="M 19.41,23.85 A 60,60 0 0 0 5.54,77.50 L 41.28,60.40 A 23,23 0 0 1 53.92,43.33 Z"/>
  <path fill="#0078f1" d="M 6.94,82.54 A 60,60 0 0 0 46.46,121.38 L 49.53,81.87 A 23,23 0 0 1 41.06,62.40 Z"/>
  <path fill="#00a7f8" d="M 51.53,122.69 A 60,60 0 0 0 104.92,107.88 L 72.24,85.47 A 23,23 0 0 1 51.14,83.07 Z"/>
  <path fill="#00cffe" d="M 108.59,104.15 A 60,60 0 0 0 122.46,50.50 L 86.72,67.60 A 23,23 0 0 1 74.08,84.67 Z"/>
  <circle cx="71.25" cy="58.75" r="11" fill="#e60000"/>
</svg>
